<?xml version="1.0"?>
<svg xmlns="http://www.w3.org/2000/svg" viewBox="1 1 511.99998 511.99998" width="512px" height="512px" class=""><g><path d="m512 256c0 77.804688-34.699219 147.496094-89.484375 194.445312-9.289063 7.972657-19.164063 15.277344-29.539063 21.859376-5.289062 3.363281-10.710937 6.53125-16.25 9.488281-8.410156 4.503906-17.105468 8.558593-26.046874 12.109375-29.28125 11.683594-61.222657 18.097656-94.679688 18.097656-28.652344 0-56.195312-4.703125-81.910156-13.394531-4.324219-1.453125-8.589844-3.019531-12.800782-4.703125-8.941406-3.550782-17.636718-7.605469-26.046874-12.121094-9.507813-5.089844-18.664063-10.773438-27.410157-16.988281-6.339843-4.515625-12.476562-9.3125-18.367187-14.359375-54.765625-46.957032-89.464844-116.640625-89.464844-194.433594 0-141.386719 114.613281-256 256-256s256 114.613281 256 256zm0 0" fill="#5cbf96" data-original="#5CBF96" class=""/><path d="m146.410156 446.609375c-2.359375 4.796875-4.367187 9.8125-6.070312 14.972656-2.164063 6.542969-3.835938 13.3125-5.097656 20.199219-9.507813-5.089844-18.664063-10.773438-27.410157-16.988281-6.339843-4.515625-12.476562-9.3125-18.367187-14.359375 5.507812-25.683594 13.363281-38.011719 13.363281-38.011719l38.816406-1.546875zm0 0" fill="#e8b391" data-original="#E8B391" class=""/><path d="m422.515625 450.445312c-9.289063 7.972657-19.164063 15.277344-29.539063 21.859376-5.289062 3.363281-10.710937 6.53125-16.25 9.488281-2.246093-12.332031-5.808593-24.285157-11.160156-35.183594l9.550782-41.691406 34.042968 7.503906s2.769532 4.367187 6.175782 13.3125c2.332031 6.089844 4.941406 14.304687 7.179687 24.710937zm0 0" fill="#e8b391" data-original="#E8B391" class=""/><path d="m426.320312 398.964844-60.753906 47.644531-14.886718-9.527344v56.820313c-29.28125 11.683594-61.222657 18.097656-94.679688 18.097656s-65.410156-6.414062-94.710938-18.097656v-56.820313l-14.878906 9.527344-26.894531-21.09375-33.855469-26.550781 69.265625-96.007813c3.992188-5.539062 10.410157-8.816406 17.230469-8.816406h167.65625c6.832031 0 13.238281 3.277344 17.230469 8.816406zm0 0" fill="#49aab7" data-original="#49AAB7" class="" style="fill:#3AAFA9" data-old_color="#3aafa9"/><path d="m225.777344 294.144531-2.785156 5.964844c-61.703126-5.964844-76.582032 41.679687-120.164063 112.316406l-17.167969-13.460937 69.269532-96.007813c3.992187-5.535156 10.402343-8.8125 17.226562-8.8125zm0 0" fill="#488089" data-original="#488089" class="active-path" style="fill:#3AAFA9" data-old_color="#3aafa9"/><g fill="#e8b391"><path d="m255.988281 333.121094c-18.226562 0-33.003906-14.777344-33.003906-33.003906v-38.042969h66.007813v38.042969c.003906 18.226562-14.773438 33.003906-33.003907 33.003906zm0 0" data-original="#000000" class=""/><path d="m199.703125 177.714844c0 15.722656-12.742187 28.46875-28.464844 28.46875-15.722656 0-28.46875-12.746094-28.46875-28.46875 0-15.71875 12.746094-28.464844 28.46875-28.464844 15.722657 0 28.464844 12.746094 28.464844 28.464844zm0 0" data-original="#000000" class=""/><path d="m368.730469 177.714844c0 15.722656-12.742188 28.46875-28.464844 28.46875s-28.46875-12.746094-28.46875-28.46875c0-15.71875 12.746094-28.464844 28.46875-28.464844s28.464844 12.746094 28.464844 28.464844zm0 0" data-original="#000000" class=""/></g><path d="m255.988281 280.953125c-46.804687 0-84.75-37.941406-84.75-84.75v-108.796875h169.503907v108.796875c0 46.808594-37.945313 84.75-84.753907 84.75zm0 0" fill="#ffcba7" data-original="#FFCBA7"/><path d="m268.113281 280.089844c-3.960937.570312-8 .859375-12.121093.859375-46.808594 0-84.753907-37.933594-84.753907-84.746094v-108.792969h24.25v108.792969c0 42.691406 31.5625 78.003906 72.625 83.886719zm0 0" fill="#e8b391" data-original="#E8B391" class=""/><path d="m189.144531 105.800781-26.234375 13.199219v60.074219c14.488282 0 26.234375-11.746094 26.234375-26.234375zm0 0" fill="#3e4654" data-original="#3E4654"/><path d="m247.765625 34.148438c-46.863281 0-84.855469 37.992187-84.855469 84.851562h159.925782v33.839844c0 14.488281 11.746093 26.234375 26.230468 26.234375v-87.875c0-31.507813-25.539062-57.050781-57.050781-57.050781zm0 0" fill="#3e4654" data-original="#3E4654"/><path d="m287.558594 34.148438h-39.792969c-46.863281 0-84.851563 37.992187-84.851563 84.851562h39.792969c-.003906-46.859375 37.988281-84.851562 84.851563-84.851562zm0 0" fill="#216e82" data-original="#216E82"/><path d="m235.351562 169.171875c0-8.75-7.09375-15.84375-15.84375-15.84375s-15.839843 7.09375-15.839843 15.84375" fill="#38435c" data-original="#38435C"/><path d="m307.964844 169.171875c0-8.75-7.089844-15.84375-15.839844-15.84375s-15.84375 7.09375-15.84375 15.84375" fill="#38435c" data-original="#38435C"/><path d="m269.433594 184.179688h-26.890625c-4.605469 0-8.335938 3.734374-8.335938 8.339843s3.730469 8.339844 8.335938 8.339844h26.890625c4.605468 0 8.339844-3.734375 8.339844-8.339844s-3.734376-8.339843-8.339844-8.339843zm0 0" fill="#e8b391" data-original="#E8B391" class=""/><path d="m216.382812 209.65625c0 21.875 17.730469 39.609375 39.605469 39.609375s39.609375-17.734375 39.609375-39.609375" fill="#fff" data-original="#FFF"/><path d="m174.089844 424.261719v74.34375c-4.324219-1.453125-8.589844-3.019531-12.800782-4.703125v-56.820313zm0 0" fill="#488089" data-original="#488089" class="active-path" style="fill:#3AAFA9" data-old_color="#3aafa9"/><path d="m140.339844 461.582031c-2.164063 6.542969-3.835938 13.3125-5.097656 20.199219-9.507813-5.089844-18.664063-10.773438-27.410157-16.988281 2.644531-10.042969 14.378907-14.746094 23.269531-9.082031zm0 0" fill="#ffcba7" data-original="#FFCBA7"/><path d="m422.515625 450.445312c-9.289063 7.972657-19.164063 15.277344-29.539063 21.859376-.324218-4.042969-.660156-7.636719-.960937-10.691407-.722656-7.230469 1.847656-14.40625 6.988281-19.546875l16.332032-16.332031c2.332031 6.089844 4.941406 14.304687 7.179687 24.710937zm0 0" fill="#ffcba7" data-original="#FFCBA7"/><path d="m350.683594 437.082031v-32.160156l29.910156 29.910156-15.023438 11.78125zm0 0" fill="#488089" data-original="#488089" class="active-path" style="fill:#3AAFA9" data-old_color="#3aafa9"/><path d="m271.34375 108.601562-.035156.035157c-7.957032 5.816406-16.570313 11.4375-25.730469 16.726562-60.105469 34.710938-120.960937 41.820313-135.933594 15.902344-14.960937-25.921875 21.628907-75.066406 81.734375-109.765625 13.496094-7.792969 27.027344-14.199219 40.070313-19.144531 45.050781-17.089844 84.253906-16.855469 95.867187 3.242187 12.671875 21.964844-11.664062 60.605469-55.972656 93.003906zm0 0" fill="#ed5972" data-original="#ED5972" class=""/><path d="m271.34375 108.601562-.035156.035157c-7.957032 5.816406-16.570313 11.4375-25.730469 16.726562-60.105469 34.710938-120.960937 41.820313-135.933594 15.902344-14.960937-25.921875 21.628907-75.066406 81.734375-109.765625 13.496094-7.792969 27.027344-14.199219 40.070313-19.144531-40.070313 19.144531-55.421875 70.015625-42.308594 93.445312 13.117187 23.429688 82.203125 2.800781 82.203125 2.800781zm0 0" fill="#d8375a" data-original="#D8375A"/><path d="m207.164062 58.777344-13.1875-49.222656-36.03125 36.03125zm0 0" fill="#3e4654" data-original="#3E4654"/><path d="m331.234375 412.496094c0-11.253906-7.488281-20.378906-16.71875-20.378906-9.234375 0-16.71875 9.125-16.71875 20.378906 0 11.25 7.484375 20.375 16.71875 20.375 9.230469 0 16.71875-9.125 16.71875-20.375zm0 0" fill="#ed5972" data-original="#ED5972" class=""/><path d="m237.191406 419.546875c0-5.625-3.742187-10.1875-8.359375-10.1875-4.617187 0-8.359375 4.5625-8.359375 10.1875 0 5.628906 3.742188 10.1875 8.359375 10.1875 4.617188 0 8.359375-4.558594 8.359375-10.1875zm0 0" fill="#ed5972" data-original="#ED5972" class=""/><path d="m215.25 465.523438c0-5.628907-3.742188-10.1875-8.359375-10.1875s-8.359375 4.558593-8.359375 10.1875c0 5.625 3.742188 10.1875 8.359375 10.1875s8.359375-4.5625 8.359375-10.1875zm0 0" fill="#f7d65e" data-original="#F7D65E" class="" style="fill:#F7D65E"/><path d="m293.617188 449.589844c0-9.8125-6.082032-17.765625-13.585938-17.765625-7.5 0-13.582031 7.953125-13.582031 17.765625 0 9.808594 6.082031 17.761718 13.582031 17.761718 7.503906 0 13.585938-7.953124 13.585938-17.761718zm0 0" fill="#f7d65e" data-original="#F7D65E" class="" style="fill:#F7D65E"/><path d="m227.378906 399.925781c9.175782-11.539062 9.460938-26.582031.636719-33.597656-8.824219-7.019531-23.414063-3.351563-32.589844 8.1875s-9.460937 26.578125-.636719 33.597656c8.824219 7.015625 23.414063 3.347657 32.589844-8.1875zm0 0" fill="#ed5972" data-original="#ED5972" class=""/></g> </svg>
