<?xml version="1.0"?>
<svg xmlns="http://www.w3.org/2000/svg" xmlns:xlink="http://www.w3.org/1999/xlink" version="1.1" id="Capa_1" x="0px" y="0px" viewBox="0 0 512 512" style="enable-background:new 0 0 512 512;" xml:space="preserve" width="512px" height="512px" class=""><g><g>
	<g>
		<path d="M397.263,0H253.452c-38.263,0-75.394,13.681-104.553,38.522c-27.614,23.525-46.545,55.654-53.673,90.89H90.66    c-4.143,0-7.5,3.358-7.5,7.5v6.43H66.154c-4.143,0-7.5,3.358-7.5,7.5v60.068c0,4.142,3.357,7.5,7.5,7.5s7.5-3.358,7.5-7.5v-52.568    h9.507v21.518c0,4.142,3.357,7.5,7.5,7.5h42.947c4.143,0,7.5-3.358,7.5-7.5v-21.518H293.76v21.518c0,4.142,3.357,7.5,7.5,7.5    h42.948c4.143,0,7.5-3.358,7.5-7.5v-21.518h9.506V406.91c0,4.142,3.357,7.5,7.5,7.5s7.5-3.358,7.5-7.5V150.843    c0-4.142-3.357-7.5-7.5-7.5h-17.006v-6.43c0-4.142-3.357-7.5-7.5-7.5h-1.368v-0.831c0-9.052,7.364-16.416,16.416-16.416h38.007    c30.924,0,56.083-25.159,56.083-56.083S428.187,0,397.263,0z M126.108,172.361H98.161v-27.948h27.947V172.361z M303.173,129.414    h-1.913c-4.143,0-7.5,3.358-7.5,7.5v6.43H141.108v-0.001v-6.43c0-3.352-2.199-6.188-5.233-7.149    c14.177-52.606,62.538-90.097,117.577-90.097h143.812c9.053,0,16.417,7.364,16.417,16.417c0,9.053-7.365,16.416-16.418,16.416    h-38.007c-30.924,0-56.083,25.159-56.083,56.083V129.414z M336.708,172.361H308.76v-27.948h27.948V172.361z M397.263,97.166    h-38.007c-17.323,0-31.416,14.093-31.416,31.416v0.831h-9.667v-0.831c0-22.653,18.43-41.083,41.083-41.083h38.007    c17.323,0,31.417-14.093,31.417-31.417c0-17.324-14.094-31.417-31.417-31.417H253.452c-63.047,0-118.294,43.803-132.965,104.746    h-9.924c6.905-30.784,23.786-58.788,48.065-79.472C185.075,27.409,218.751,15,253.452,15h143.812    c22.653,0,41.083,18.43,41.083,41.083S419.917,97.166,397.263,97.166z" data-original="#000000" class="active-path" data-old_color="#3aafa9" fill="#3aafa9"/>
	</g>
</g><g>
	<g>
		<path d="M368.714,433.589c-4.143,0-7.5,3.358-7.5,7.5V497H73.654V396.089c0-4.142-3.357-7.5-7.5-7.5s-7.5,3.358-7.5,7.5V504.5    c0,4.142,3.357,7.5,7.5,7.5h302.561c4.143,0,7.5-3.358,7.5-7.5v-63.411C376.214,436.947,372.857,433.589,368.714,433.589z" data-original="#000000" class="active-path" data-old_color="#3aafa9" fill="#3aafa9"/>
	</g>
</g><g>
	<g>
		<path d="M66.154,237.589c-4.143,0-7.5,3.358-7.5,7.5v116.822c0,4.142,3.357,7.5,7.5,7.5s7.5-3.358,7.5-7.5V245.089    C73.654,240.947,70.297,237.589,66.154,237.589z" data-original="#000000" class="active-path" data-old_color="#3aafa9" fill="#3aafa9"/>
	</g>
</g><g>
	<g>
		<path d="M309.708,429.288c-3.673,0-6.729,2.64-7.374,6.125c-3.486,0.646-6.126,3.702-6.126,7.375c0,4.142,3.358,7.5,7.5,7.5h6    c4.143,0,7.5-3.358,7.5-7.5v-6C317.208,432.646,313.851,429.288,309.708,429.288z" data-original="#000000" class="active-path" data-old_color="#3aafa9" fill="#3aafa9"/>
	</g>
</g><g>
	<g>
		<path d="M279.059,435.288h-12.325c-4.143,0-7.5,3.358-7.5,7.5c0,4.142,3.357,7.5,7.5,7.5h12.325c4.143,0,7.5-3.358,7.5-7.5    C286.559,438.646,283.202,435.288,279.059,435.288z" data-original="#000000" class="active-path" data-old_color="#3aafa9" fill="#3aafa9"/>
	</g>
</g><g>
	<g>
		<path d="M242.084,435.288h-12.325c-4.143,0-7.5,3.358-7.5,7.5c0,4.142,3.358,7.5,7.5,7.5h12.325c4.143,0,7.5-3.358,7.5-7.5    C249.584,438.646,246.227,435.288,242.084,435.288z" data-original="#000000" class="active-path" data-old_color="#3aafa9" fill="#3aafa9"/>
	</g>
</g><g>
	<g>
		<path d="M168.134,435.288h-12.325c-4.143,0-7.5,3.358-7.5,7.5c0,4.142,3.358,7.5,7.5,7.5h12.325c4.143,0,7.5-3.358,7.5-7.5    C175.634,438.646,172.277,435.288,168.134,435.288z" data-original="#000000" class="active-path" data-old_color="#3aafa9" fill="#3aafa9"/>
	</g>
</g><g>
	<g>
		<path d="M205.109,435.288h-12.324c-4.143,0-7.5,3.358-7.5,7.5c0,4.142,3.357,7.5,7.5,7.5h12.324c4.143,0,7.5-3.358,7.5-7.5    C212.609,438.646,209.252,435.288,205.109,435.288z" data-original="#000000" class="active-path" data-old_color="#3aafa9" fill="#3aafa9"/>
	</g>
</g><g>
	<g>
		<path d="M132.534,435.413c-0.646-3.485-3.701-6.125-7.374-6.125c-4.143,0-7.5,3.358-7.5,7.5c0,0,0,6,0,6    c0,4.142,3.357,7.5,7.5,7.5h6c4.143,0,7.5-3.358,7.5-7.5C138.66,439.115,136.02,436.059,132.534,435.413z" data-original="#000000" class="active-path" data-old_color="#3aafa9" fill="#3aafa9"/>
	</g>
</g><g>
	<g>
		<path d="M125.16,391.168c-4.143,0-7.5,3.358-7.5,7.5v12.707c0,4.142,3.357,7.5,7.5,7.5s7.5-3.358,7.5-7.5v-12.707    C132.66,394.526,129.303,391.168,125.16,391.168z" data-original="#000000" class="active-path" data-old_color="#3aafa9" fill="#3aafa9"/>
	</g>
</g><g>
	<g>
		<path d="M125.16,238.691c-4.143,0-7.5,3.358-7.5,7.5v12.707c0,4.142,3.357,7.5,7.5,7.5s7.5-3.358,7.5-7.5v-12.707    C132.66,242.049,129.303,238.691,125.16,238.691z" data-original="#000000" class="active-path" data-old_color="#3aafa9" fill="#3aafa9"/>
	</g>
</g><g>
	<g>
		<path d="M125.16,276.811c-4.143,0-7.5,3.358-7.5,7.5v12.707c0,4.142,3.357,7.5,7.5,7.5s7.5-3.358,7.5-7.5v-12.707    C132.66,280.169,129.303,276.811,125.16,276.811z" data-original="#000000" class="active-path" data-old_color="#3aafa9" fill="#3aafa9"/>
	</g>
</g><g>
	<g>
		<path d="M125.16,314.931c-4.143,0-7.5,3.358-7.5,7.5v12.706c0,4.142,3.357,7.5,7.5,7.5s7.5-3.358,7.5-7.5v-12.706    C132.66,318.289,129.303,314.931,125.16,314.931z" data-original="#000000" class="active-path" data-old_color="#3aafa9" fill="#3aafa9"/>
	</g>
</g><g>
	<g>
		<path d="M125.16,353.05c-4.143,0-7.5,3.358-7.5,7.5v12.706c0,4.142,3.357,7.5,7.5,7.5s7.5-3.358,7.5-7.5V360.55    C132.66,356.408,129.303,353.05,125.16,353.05z" data-original="#000000" class="active-path" data-old_color="#3aafa9" fill="#3aafa9"/>
	</g>
</g><g>
	<g>
		<path d="M131.16,207.279h-6c-4.143,0-7.5,3.358-7.5,7.5v6c0,4.142,3.357,7.5,7.5,7.5c3.673,0,6.729-2.64,7.374-6.125    c3.486-0.646,6.126-3.702,6.126-7.375C138.66,210.637,135.303,207.279,131.16,207.279z" data-original="#000000" class="active-path" data-old_color="#3aafa9" fill="#3aafa9"/>
	</g>
</g><g>
	<g>
		<path d="M205.109,207.279h-12.325c-4.143,0-7.5,3.358-7.5,7.5c0,4.142,3.357,7.5,7.5,7.5h12.325c4.143,0,7.5-3.358,7.5-7.5    C212.609,210.637,209.251,207.279,205.109,207.279z" data-original="#000000" class="active-path" data-old_color="#3aafa9" fill="#3aafa9"/>
	</g>
</g><g>
	<g>
		<path d="M242.083,207.279h-12.324c-4.143,0-7.5,3.358-7.5,7.5c0,4.142,3.357,7.5,7.5,7.5h12.324c4.143,0,7.5-3.358,7.5-7.5    C249.583,210.637,246.226,207.279,242.083,207.279z" data-original="#000000" class="active-path" data-old_color="#3aafa9" fill="#3aafa9"/>
	</g>
</g><g>
	<g>
		<path d="M279.059,207.279h-12.325c-4.143,0-7.5,3.358-7.5,7.5c0,4.142,3.357,7.5,7.5,7.5h12.325c4.143,0,7.5-3.358,7.5-7.5    C286.559,210.637,283.202,207.279,279.059,207.279z" data-original="#000000" class="active-path" data-old_color="#3aafa9" fill="#3aafa9"/>
	</g>
</g><g>
	<g>
		<path d="M168.134,207.279h-12.325c-4.143,0-7.5,3.358-7.5,7.5c0,4.142,3.357,7.5,7.5,7.5h12.325c4.143,0,7.5-3.358,7.5-7.5    C175.634,210.637,172.277,207.279,168.134,207.279z" data-original="#000000" class="active-path" data-old_color="#3aafa9" fill="#3aafa9"/>
	</g>
</g><g>
	<g>
		<path d="M309.708,207.279h-6c-4.143,0-7.5,3.358-7.5,7.5c0,3.673,2.64,6.729,6.126,7.375c0.646,3.485,3.701,6.125,7.374,6.125    c4.143,0,7.5-3.358,7.5-7.5v-6C317.208,210.637,313.851,207.279,309.708,207.279z" data-original="#000000" class="active-path" data-old_color="#3aafa9" fill="#3aafa9"/>
	</g>
</g><g>
	<g>
		<path d="M309.708,276.811c-4.143,0-7.5,3.358-7.5,7.5v12.707c0,4.142,3.357,7.5,7.5,7.5s7.5-3.358,7.5-7.5v-12.707    C317.208,280.169,313.851,276.811,309.708,276.811z" data-original="#000000" class="active-path" data-old_color="#3aafa9" fill="#3aafa9"/>
	</g>
</g><g>
	<g>
		<path d="M309.708,238.692c-4.143,0-7.5,3.358-7.5,7.5v12.707c0,4.142,3.357,7.5,7.5,7.5s7.5-3.358,7.5-7.5v-12.707    C317.208,242.05,313.851,238.692,309.708,238.692z" data-original="#000000" class="active-path" data-old_color="#3aafa9" fill="#3aafa9"/>
	</g>
</g><g>
	<g>
		<path d="M309.708,353.05c-4.143,0-7.5,3.358-7.5,7.5v12.707c0,4.142,3.357,7.5,7.5,7.5s7.5-3.358,7.5-7.5V360.55    C317.208,356.408,313.851,353.05,309.708,353.05z" data-original="#000000" class="active-path" data-old_color="#3aafa9" fill="#3aafa9"/>
	</g>
</g><g>
	<g>
		<path d="M309.708,391.169c-4.143,0-7.5,3.358-7.5,7.5v12.707c0,4.142,3.357,7.5,7.5,7.5s7.5-3.358,7.5-7.5v-12.707    C317.208,394.527,313.851,391.169,309.708,391.169z" data-original="#000000" class="active-path" data-old_color="#3aafa9" fill="#3aafa9"/>
	</g>
</g><g>
	<g>
		<path d="M309.708,314.931c-4.143,0-7.5,3.358-7.5,7.5v12.706c0,4.142,3.357,7.5,7.5,7.5s7.5-3.358,7.5-7.5v-12.706    C317.208,318.289,313.851,314.931,309.708,314.931z" data-original="#000000" class="active-path" data-old_color="#3aafa9" fill="#3aafa9"/>
	</g>
</g><g>
	<g>
		<path d="M181.962,242.845h-23.854c-4.143,0-7.5,3.358-7.5,7.5v23.853c0,4.142,3.357,7.5,7.5,7.5s7.5-3.358,7.5-7.5v-16.353h16.354    c4.143,0,7.5-3.358,7.5-7.5C189.462,246.203,186.105,242.845,181.962,242.845z" data-original="#000000" class="active-path" data-old_color="#3aafa9" fill="#3aafa9"/>
	</g>
</g><g>
	<g>
		<path d="M276.76,375.87c-4.143,0-7.5,3.358-7.5,7.5v16.353h-16.353c-4.143,0-7.5,3.358-7.5,7.5c0,4.142,3.357,7.5,7.5,7.5h23.853    c4.143-0.001,7.5-3.359,7.5-7.501V383.37C284.26,379.228,280.903,375.87,276.76,375.87z" data-original="#000000" class="active-path" data-old_color="#3aafa9" fill="#3aafa9"/>
	</g>
</g><g>
	<g>
		<path d="M181.962,399.723h-16.354V383.37c0-4.142-3.358-7.5-7.5-7.5c-4.143,0-7.5,3.358-7.5,7.5v23.853c0,4.142,3.357,7.5,7.5,7.5    h23.854c4.143,0,7.5-3.358,7.5-7.5C189.462,403.081,186.105,399.723,181.962,399.723z" data-original="#000000" class="active-path" data-old_color="#3aafa9" fill="#3aafa9"/>
	</g>
</g><g>
	<g>
		<path d="M276.761,242.845h-23.853c-4.143,0-7.5,3.358-7.5,7.5c0,4.142,3.357,7.5,7.5,7.5h16.353v16.353c0,4.142,3.357,7.5,7.5,7.5    s7.5-3.358,7.5-7.5v-23.853C284.261,246.203,280.904,242.845,276.761,242.845z" data-original="#000000" class="active-path" data-old_color="#3aafa9" fill="#3aafa9"/>
	</g>
</g></g> </svg>
